<?xml version="1.0" encoding="UTF-8"?>
<svg xmlns="http://www.w3.org/2000/svg" width="1024" height="1024" viewBox="0 0 200 200">
  <title>Wowoli — ORIGIN</title>
  <defs>
    <radialGradient id="g-origin-helmet" cx="0.34" cy="0.26" r="0.82"><stop offset="0" stop-color="#F1F3FA"/><stop offset="0.42" stop-color="#C7D0ED"/><stop offset="1" stop-color="#8289A2"/></radialGradient>
    <radialGradient id="g-origin-visor" cx="0.4" cy="0.3" r="0.8"><stop offset="0" stop-color="#545875"/><stop offset="0.55" stop-color="#111740"/><stop offset="1" stop-color="#07091A"/></radialGradient>
    <linearGradient id="g-origin-body" x1="0" y1="0" x2="0" y2="1"><stop offset="0" stop-color="#61668F"/><stop offset="1" stop-color="#131736"/></linearGradient>
    <linearGradient id="g-origin-limb" x1="0" y1="0" x2="0" y2="1"><stop offset="0" stop-color="#757DAB"/><stop offset="1" stop-color="#2C3256"/></linearGradient>
    <linearGradient id="g-origin-limbBack" x1="0" y1="0" x2="0" y2="1"><stop offset="0" stop-color="#3B4373"/><stop offset="1" stop-color="#212641"/></linearGradient>
    <radialGradient id="g-origin-eye" cx="0.36" cy="0.3" r="0.74"><stop offset="0" stop-color="#FFFFFF"/><stop offset="0.26" stop-color="#AEFBF7"/><stop offset="0.62" stop-color="#2BF5EA"/><stop offset="1" stop-color="#198E88"/></radialGradient>
    <radialGradient id="g-origin-bulb" cx="0.34" cy="0.3" r="0.76"><stop offset="0" stop-color="#FFD1F5"/><stop offset="0.45" stop-color="#FF2FD0"/><stop offset="1" stop-color="#991C7D"/></radialGradient>
    <radialGradient id="g-origin-eyeBloom" cx="0.5" cy="0.5" r="0.5"><stop offset="0" stop-color="#2BF5EA" stop-opacity="0.55"/><stop offset="0.55" stop-color="#2BF5EA" stop-opacity="0.16"/><stop offset="1" stop-color="#2BF5EA" stop-opacity="0"/></radialGradient>
    <radialGradient id="g-origin-bulbBloom" cx="0.5" cy="0.5" r="0.5"><stop offset="0" stop-color="#FF2FD0" stop-opacity="0.6"/><stop offset="1" stop-color="#FF2FD0" stop-opacity="0"/></radialGradient>
    <radialGradient id="g-origin-bootGlow" cx="0.5" cy="0.5" r="0.5"><stop offset="0" stop-color="#FF2FD0" stop-opacity="0.7"/><stop offset="1" stop-color="#FF2FD0" stop-opacity="0"/></radialGradient>
    <radialGradient id="g-origin-chestGlow" cx="0.5" cy="0.5" r="0.5"><stop offset="0" stop-color="#FF97E8" stop-opacity="0.75"/><stop offset="1" stop-color="#FF2FD0" stop-opacity="0"/></radialGradient>
    <radialGradient id="g-origin-aura" cx="0.5" cy="0.5" r="0.5"><stop offset="0.55" stop-color="#2BF5EA" stop-opacity="0"/><stop offset="0.82" stop-color="#2BF5EA" stop-opacity="0.14"/><stop offset="1" stop-color="#2BF5EA" stop-opacity="0"/></radialGradient>
    <radialGradient id="g-origin-ground" cx="0.5" cy="0.5" r="0.5"><stop offset="0" stop-color="#000000" stop-opacity="0.62"/><stop offset="1" stop-color="#000000" stop-opacity="0"/></radialGradient>
    <linearGradient id="g-origin-rimA" x1="0" y1="1" x2="1" y2="0"><stop offset="0" stop-color="#6BF8F0" stop-opacity="0"/><stop offset="0.45" stop-color="#A6FBF6" stop-opacity="0.95"/><stop offset="1" stop-color="#6BF8F0" stop-opacity="0"/></linearGradient>
    <linearGradient id="g-origin-rimB" x1="1" y1="0" x2="0" y2="1"><stop offset="0" stop-color="#FF2FD0" stop-opacity="0"/><stop offset="0.5" stop-color="#FF2FD0" stop-opacity="0.9"/><stop offset="1" stop-color="#FF2FD0" stop-opacity="0"/></linearGradient>
  </defs>
  <ellipse cx="100" cy="184" rx="44" ry="8" fill="url(#g-origin-ground)"/>
  <rect x="48" y="114" width="27" height="44" rx="13" fill="url(#g-origin-limbBack)"/>
  <rect x="53" y="122" width="6" height="18" rx="3" fill="#FF2FD0" opacity="0.75"/>
  <rect x="52" y="118" width="9" height="6" rx="3" fill="#FFFFFF" opacity="0.14"/>
  <rect x="60" y="121" width="21" height="37" rx="10.5" fill="url(#g-origin-limbBack)"/>
  <rect x="81" y="154" width="19" height="27" rx="9.5" fill="url(#g-origin-limb)"/>
  <rect x="101" y="154" width="19" height="27" rx="9.5" fill="url(#g-origin-limb)"/>
  <rect x="81" y="172" width="19" height="9" rx="4.5" fill="#FF2FD0"/>
  <rect x="101" y="172" width="19" height="9" rx="4.5" fill="#FF2FD0"/>
  <rect x="75" y="114" width="50" height="46" rx="23" fill="url(#g-origin-body)"/>
  <ellipse cx="100" cy="119" rx="27" ry="9" fill="#000000" opacity="0.4"/>
  <rect x="87" y="128" width="26" height="20" rx="9" fill="#05060F"/>
  <rect x="90" y="131" width="20" height="14" rx="6" fill="#FF2FD0" opacity="0.92"/>
  <rect x="90" y="131" width="20" height="4" rx="2" fill="#FF97E8" opacity="0.55"/>
  <rect x="119" y="121" width="21" height="37" rx="10.5" fill="url(#g-origin-limb)"/>
  <rect x="122" y="124" width="15" height="8" rx="4" fill="#FFFFFF" opacity="0.16"/>
  <circle cx="100" cy="72" r="56" fill="url(#g-origin-helmet)"/>
  <path d="M46 88 A56 56 0 0 0 154 88" fill="none" opacity="0.22" stroke="#535868" stroke-width="11"/>
  <circle cx="100" cy="72" r="56" fill="none" opacity="0.45" stroke="#D9DFF2" stroke-width="2"/>
  <path d="M52 44 A56 56 0 0 0 50 92" fill="none" stroke="url(#g-origin-rimA)" stroke-width="6.5" stroke-linecap="round"/>
  <path d="M150 88 A56 56 0 0 1 116 125" fill="none" stroke="url(#g-origin-rimB)" stroke-width="5.5" stroke-linecap="round"/>
  <ellipse cx="72" cy="40" rx="19" ry="10" fill="#FFFFFF" opacity="0.6" transform="rotate(-36 72 40)"/>
  <ellipse cx="58" cy="58" rx="6.5" ry="3.6" fill="#FFFFFF" opacity="0.38" transform="rotate(-36 58 58)"/>
  <circle cx="105" cy="72" r="41" fill="url(#g-origin-visor)"/>
  <circle cx="105" cy="72" r="41" fill="none" opacity="0.55" stroke="#757890" stroke-width="1.8"/>
  <circle cx="110" cy="69" r="36" fill="url(#g-origin-eyeBloom)"/>
  <circle cx="110" cy="69" r="20" fill="url(#g-origin-eye)"/>
  <circle cx="110" cy="69" r="20" fill="none" opacity="0.45" stroke="#AEFBF7" stroke-width="1.4"/>
  <ellipse cx="117" cy="60" rx="6.2" ry="4.6" fill="#FFFFFF" opacity="0.92" transform="rotate(-26 117 60)"/>
  <circle cx="102" cy="79" r="3.2" fill="#FFFFFF" opacity="0.38"/>
  <path d="M72 56 Q100 34 138 44 Q104 46 78 66 Z" fill="#FFFFFF" opacity="0.1"/>
  <path d="M132 40 Q144 26 148 16" fill="none" stroke="#757DAB" stroke-width="5" stroke-linecap="round"/>
  <circle cx="148" cy="16" r="13" fill="url(#g-origin-bulbBloom)"/>
  <circle cx="148" cy="16" r="6.5" fill="url(#g-origin-bulb)"/>
  <circle cx="146" cy="13.6" r="2.2" fill="#FFFFFF" opacity="0.85"/>
</svg>
